<svg xmlns="http://www.w3.org/2000/svg" xmlns:xlink="http://www.w3.org/1999/xlink" width="500" zoomAndPan="magnify" viewBox="0 0 375 149.999998" height="200" preserveAspectRatio="xMidYMid meet" version="1.0"><defs><g/><clipPath id="f89d57cd30"><path d="M 217 33 L 248 33 L 248 59 L 217 59 Z M 217 33 " clip-rule="nonzero"/></clipPath><clipPath id="d23a2236da"><path d="M 223.886719 8.128906 L 270.210938 37.3125 L 241.023438 83.636719 L 194.703125 54.449219 Z M 223.886719 8.128906 " clip-rule="nonzero"/></clipPath><clipPath id="8b55477fdf"><path d="M 223.886719 8.128906 L 270.210938 37.3125 L 241.023438 83.636719 L 194.703125 54.449219 Z M 223.886719 8.128906 " clip-rule="nonzero"/></clipPath><clipPath id="f3a18263dd"><path d="M 213 29 L 252 29 L 252 63 L 213 63 Z M 213 29 " clip-rule="nonzero"/></clipPath><clipPath id="dee36f58ee"><path d="M 223.886719 8.128906 L 270.210938 37.3125 L 241.023438 83.636719 L 194.703125 54.449219 Z M 223.886719 8.128906 " clip-rule="nonzero"/></clipPath><clipPath id="47af12f293"><path d="M 223.886719 8.128906 L 270.210938 37.3125 L 241.023438 83.636719 L 194.703125 54.449219 Z M 223.886719 8.128906 " clip-rule="nonzero"/></clipPath><clipPath id="ccdb96376f"><path d="M 215 31 L 250 31 L 250 61 L 215 61 Z M 215 31 " clip-rule="nonzero"/></clipPath><clipPath id="24c2c28184"><path d="M 223.886719 8.128906 L 270.210938 37.3125 L 241.023438 83.636719 L 194.703125 54.449219 Z M 223.886719 8.128906 " clip-rule="nonzero"/></clipPath><clipPath id="7243add1d7"><path d="M 223.886719 8.128906 L 270.210938 37.3125 L 241.023438 83.636719 L 194.703125 54.449219 Z M 223.886719 8.128906 " clip-rule="nonzero"/></clipPath><clipPath id="fbd275e6e1"><path d="M 220 35 L 245 35 L 245 57 L 220 57 Z M 220 35 " clip-rule="nonzero"/></clipPath><clipPath id="67a6699467"><path d="M 223.886719 8.128906 L 270.210938 37.3125 L 241.023438 83.636719 L 194.703125 54.449219 Z M 223.886719 8.128906 " clip-rule="nonzero"/></clipPath><clipPath id="b36569a74b"><path d="M 223.886719 8.128906 L 270.210938 37.3125 L 241.023438 83.636719 L 194.703125 54.449219 Z M 223.886719 8.128906 " clip-rule="nonzero"/></clipPath><clipPath id="b51008e2ca"><path d="M 222 37 L 243 37 L 243 55 L 222 55 Z M 222 37 " clip-rule="nonzero"/></clipPath><clipPath id="4b38dcaef7"><path d="M 223.886719 8.128906 L 270.210938 37.3125 L 241.023438 83.636719 L 194.703125 54.449219 Z M 223.886719 8.128906 " clip-rule="nonzero"/></clipPath><clipPath id="c6bdcd0d51"><path d="M 223.886719 8.128906 L 270.210938 37.3125 L 241.023438 83.636719 L 194.703125 54.449219 Z M 223.886719 8.128906 " clip-rule="nonzero"/></clipPath><clipPath id="90be9744f2"><path d="M 205 18 L 260 18 L 260 74 L 205 74 Z M 205 18 " clip-rule="nonzero"/></clipPath><clipPath id="ec907bd884"><path d="M 223.886719 8.128906 L 270.210938 37.3125 L 241.023438 83.636719 L 194.703125 54.449219 Z M 223.886719 8.128906 " clip-rule="nonzero"/></clipPath><clipPath id="dadbf7994b"><path d="M 223.886719 8.128906 L 270.210938 37.3125 L 241.023438 83.636719 L 194.703125 54.449219 Z M 223.886719 8.128906 " clip-rule="nonzero"/></clipPath><clipPath id="df94f778cd"><path d="M 225 39 L 240 39 L 240 53 L 225 53 Z M 225 39 " clip-rule="nonzero"/></clipPath><clipPath id="f79398544c"><path d="M 223.886719 8.128906 L 270.210938 37.3125 L 241.023438 83.636719 L 194.703125 54.449219 Z M 223.886719 8.128906 " clip-rule="nonzero"/></clipPath><clipPath id="50e508bcc8"><path d="M 223.886719 8.128906 L 270.210938 37.3125 L 241.023438 83.636719 L 194.703125 54.449219 Z M 223.886719 8.128906 " clip-rule="nonzero"/></clipPath></defs><g fill="#febe99" fill-opacity="1"><g transform="translate(73.5231, 65.963629)"><g><path d="M 25.097656 -34.996094 L 19.25 -17.546875 L 13.648438 -34.996094 L -0.351562 -34.996094 L 11.25 0 L 26.699219 0 L 30.398438 -10.5 L 28.296875 -16.25 L 29.046875 -16.25 L 34.945312 0 L 50.546875 0 L 62.144531 -34.996094 L 48.144531 -34.996094 L 42.597656 -17.546875 L 36.496094 -34.996094 Z M 25.097656 -34.996094 "/></g></g></g><g fill="#febe99" fill-opacity="1"><g transform="translate(135.463511, 65.963629)"><g><path d="M 14.949219 -28.898438 C 6.949219 -28.898438 0.5 -22.449219 0.5 -14.449219 C 0.5 -6.5 6.949219 0 14.949219 0 L 16.699219 0 L 16.699219 -11.949219 L 14.949219 -11.949219 C 13.546875 -11.949219 12.449219 -13.097656 12.449219 -14.449219 C 12.449219 -15.796875 13.546875 -16.949219 14.949219 -16.949219 C 16.296875 -16.949219 17.398438 -15.796875 17.398438 -14.449219 L 17.398438 0 L 29.398438 0 L 29.398438 -14.449219 C 29.398438 -22.449219 22.898438 -28.898438 14.949219 -28.898438 Z M 14.949219 -28.898438 "/></g></g></g><g fill="#febe99" fill-opacity="1"><g transform="translate(165.308888, 65.963629)"><g><path d="M 20.648438 -28.046875 L 17.097656 -21.148438 L 13.5 -28.046875 L 0.300781 -28.046875 L 8.300781 -14.046875 L -0.351562 0 L 12.847656 0 L 16.699219 -6.25 L 14.347656 -10 L 15.148438 -10 C 17.199219 -6.699219 19.25 -3.351562 21.296875 0 L 34.496094 0 L 25.746094 -14.046875 L 33.847656 -28.046875 Z M 20.648438 -28.046875 "/></g></g></g><g fill="#febe99" fill-opacity="1"><g transform="translate(124.277902, 104.358546)"><g><path d="M 0.550781 0 L 19.898438 0 C 29.847656 0 36.046875 -2.949219 36.046875 -11.949219 C 36.046875 -15.25 34.746094 -18.597656 31.746094 -20.898438 L 19.898438 -20.898438 C 23.949219 -19.898438 24.199219 -13.097656 18.847656 -13.097656 C 12.296875 -13.097656 12.949219 -21.746094 18.898438 -21.746094 L 35.796875 -21.746094 L 35.796875 -34.996094 L 17 -34.996094 C 5.75 -34.996094 0.5 -31.195312 0.5 -22.296875 C 0.5 -19.296875 1.351562 -16.148438 3.601562 -14 L 7.300781 -14 L 7.847656 -13.148438 L 0.550781 -13.148438 Z M 0.550781 0 "/></g></g></g><g fill="#febe99" fill-opacity="1"><g transform="translate(160.522289, 104.358546)"><g><path d="M 13.597656 0 L 21.296875 0 L 21.296875 -11.648438 L 13.398438 -11.648438 C 13.046875 -11.648438 12.75 -11.949219 12.75 -12.296875 L 12.75 -16.449219 L 21.296875 -16.449219 L 21.296875 -28.046875 L 12.75 -28.046875 L 12.75 -35.046875 L 0.449219 -35.046875 L 0.449219 -12.847656 C 0.449219 -4.25 5.847656 0 13.597656 0 Z M 13.597656 0 "/></g></g></g><g fill="#febe99" fill-opacity="1"><g transform="translate(182.36891, 104.358546)"><g><path d="M 14.949219 -28.898438 C 6.949219 -28.898438 0.5 -22.449219 0.5 -14.449219 C 0.5 -6.5 6.949219 0 14.949219 0 L 16.699219 0 L 16.699219 -11.949219 L 14.949219 -11.949219 C 13.546875 -11.949219 12.449219 -13.097656 12.449219 -14.449219 C 12.449219 -15.796875 13.546875 -16.949219 14.949219 -16.949219 C 16.296875 -16.949219 17.398438 -15.796875 17.398438 -14.449219 L 17.398438 0 L 29.398438 0 L 29.398438 -14.449219 C 29.398438 -22.449219 22.898438 -28.898438 14.949219 -28.898438 Z M 14.949219 -28.898438 "/></g></g></g><g fill="#febe99" fill-opacity="1"><g transform="translate(212.214287, 104.358546)"><g><path d="M 20.648438 -28.046875 L 17.097656 -21.148438 L 13.5 -28.046875 L 0.300781 -28.046875 L 8.300781 -14.046875 L -0.351562 0 L 12.847656 0 L 16.699219 -6.25 L 14.347656 -10 L 15.148438 -10 C 17.199219 -6.699219 19.25 -3.351562 21.296875 0 L 34.496094 0 L 25.746094 -14.046875 L 33.847656 -28.046875 Z M 20.648438 -28.046875 "/></g></g></g><g fill="#febe99" fill-opacity="1"><g transform="translate(246.309004, 104.358546)"><g><path d="M 20.648438 -28.046875 L 17.097656 -21.148438 L 13.5 -28.046875 L 0.300781 -28.046875 L 8.300781 -14.046875 L -0.351562 0 L 12.847656 0 L 16.699219 -6.25 L 14.347656 -10 L 15.148438 -10 C 17.199219 -6.699219 19.25 -3.351562 21.296875 0 L 34.496094 0 L 25.746094 -14.046875 L 33.847656 -28.046875 Z M 20.648438 -28.046875 "/></g></g></g><g clip-path="url(#f89d57cd30)"><g clip-path="url(#d23a2236da)"><g clip-path="url(#8b55477fdf)"><path fill="#febe99" d="M 225 57.769531 C 225.160156 57.871094 225.207031 58.082031 225.105469 58.242188 C 225.003906 58.402344 224.792969 58.449219 224.632812 58.351562 C 222.371094 56.925781 220.628906 54.980469 219.464844 52.773438 C 218.257812 50.480469 217.671875 47.90625 217.769531 45.324219 C 217.777344 45.136719 217.933594 44.988281 218.121094 44.996094 C 218.3125 45.003906 218.457031 45.160156 218.449219 45.347656 C 218.355469 47.816406 218.914062 50.273438 220.066406 52.453125 C 221.175781 54.554688 222.839844 56.410156 225 57.769531 Z M 239.96875 34.011719 C 239.808594 33.910156 239.757812 33.699219 239.859375 33.539062 C 239.960938 33.378906 240.171875 33.332031 240.332031 33.433594 C 242.59375 34.859375 244.335938 36.800781 245.503906 39.011719 C 246.710938 41.300781 247.296875 43.875 247.199219 46.460938 C 247.191406 46.648438 247.03125 46.796875 246.84375 46.789062 C 246.65625 46.78125 246.507812 46.621094 246.515625 46.433594 C 246.609375 43.96875 246.050781 41.511719 244.902344 39.332031 C 243.792969 37.226562 242.128906 35.375 239.96875 34.011719 Z M 239.96875 34.011719 " fill-opacity="1" fill-rule="evenodd"/></g></g></g><g clip-path="url(#f3a18263dd)"><g clip-path="url(#dee36f58ee)"><g clip-path="url(#47af12f293)"><path fill="#febe99" d="M 222.476562 61.777344 C 222.636719 61.878906 222.683594 62.089844 222.582031 62.25 C 222.480469 62.410156 222.269531 62.457031 222.109375 62.355469 C 219.121094 60.472656 216.816406 57.902344 215.277344 54.984375 C 213.683594 51.957031 212.910156 48.554688 213.035156 45.140625 C 213.042969 44.953125 213.203125 44.804688 213.390625 44.8125 C 213.578125 44.820312 213.726562 44.980469 213.71875 45.167969 C 213.59375 48.464844 214.339844 51.746094 215.878906 54.664062 C 217.363281 57.480469 219.585938 59.957031 222.472656 61.777344 Z M 242.492188 30.003906 C 242.332031 29.90625 242.285156 29.691406 242.382812 29.535156 C 242.484375 29.375 242.695312 29.328125 242.855469 29.425781 C 245.847656 31.3125 248.148438 33.878906 249.691406 36.800781 C 251.285156 39.824219 252.058594 43.226562 251.929688 46.640625 C 251.921875 46.832031 251.765625 46.976562 251.578125 46.972656 C 251.390625 46.964844 251.242188 46.804688 251.25 46.617188 C 251.375 43.320312 250.625 40.035156 249.089844 37.117188 C 247.605469 34.304688 245.382812 31.828125 242.492188 30.007812 Z M 242.492188 30.003906 " fill-opacity="1" fill-rule="evenodd"/></g></g></g><g clip-path="url(#ccdb96376f)"><g clip-path="url(#24c2c28184)"><g clip-path="url(#7243add1d7)"><path fill="#febe99" d="M 223.738281 59.773438 C 223.898438 59.875 223.945312 60.085938 223.84375 60.246094 C 223.742188 60.40625 223.53125 60.453125 223.371094 60.351562 C 220.746094 58.699219 218.722656 56.441406 217.371094 53.878906 C 215.96875 51.21875 215.289062 48.230469 215.402344 45.230469 C 215.410156 45.042969 215.566406 44.898438 215.753906 44.902344 C 215.945312 44.910156 216.089844 45.070312 216.082031 45.257812 C 215.976562 48.140625 216.628906 51.007812 217.972656 53.558594 C 219.269531 56.019531 221.210938 58.183594 223.738281 59.773438 Z M 241.230469 32.007812 C 241.070312 31.90625 241.019531 31.695312 241.121094 31.535156 C 241.222656 31.378906 241.433594 31.332031 241.59375 31.429688 C 244.222656 33.085938 246.246094 35.339844 247.597656 37.90625 C 248.996094 40.5625 249.679688 43.550781 249.5625 46.550781 C 249.558594 46.738281 249.398438 46.886719 249.210938 46.878906 C 249.023438 46.871094 248.875 46.714844 248.882812 46.527344 C 248.992188 43.644531 248.339844 40.773438 246.996094 38.226562 C 245.699219 35.765625 243.753906 33.601562 241.230469 32.007812 Z M 241.230469 32.007812 " fill-opacity="1" fill-rule="evenodd"/></g></g></g><g clip-path="url(#fbd275e6e1)"><g clip-path="url(#67a6699467)"><g clip-path="url(#b36569a74b)"><path fill="#febe99" d="M 226.261719 55.769531 C 226.421875 55.871094 226.46875 56.078125 226.367188 56.238281 C 226.265625 56.402344 226.054688 56.449219 225.894531 56.347656 C 223.996094 55.148438 222.535156 53.519531 221.558594 51.664062 C 220.542969 49.746094 220.050781 47.585938 220.132812 45.414062 C 220.140625 45.226562 220.300781 45.078125 220.488281 45.085938 C 220.675781 45.09375 220.824219 45.253906 220.816406 45.441406 C 220.738281 47.492188 221.203125 49.535156 222.160156 51.347656 C 223.082031 53.097656 224.464844 54.636719 226.261719 55.769531 Z M 238.707031 36.015625 C 238.546875 35.914062 238.496094 35.703125 238.597656 35.542969 C 238.699219 35.382812 238.910156 35.335938 239.070312 35.4375 C 240.96875 36.632812 242.433594 38.261719 243.410156 40.117188 C 244.421875 42.039062 244.914062 44.199219 244.832031 46.367188 C 244.824219 46.554688 244.667969 46.703125 244.480469 46.695312 C 244.289062 46.6875 244.144531 46.53125 244.152344 46.34375 C 244.226562 44.292969 243.765625 42.25 242.808594 40.4375 C 241.886719 38.6875 240.503906 37.148438 238.707031 36.015625 Z M 238.707031 36.015625 " fill-opacity="1" fill-rule="evenodd"/></g></g></g><g clip-path="url(#b51008e2ca)"><g clip-path="url(#4b38dcaef7)"><g clip-path="url(#c6bdcd0d51)"><path fill="#febe99" d="M 227.523438 53.765625 C 227.683594 53.867188 227.730469 54.078125 227.628906 54.238281 C 227.53125 54.394531 227.316406 54.445312 227.15625 54.34375 C 225.625 53.378906 224.441406 52.058594 223.652344 50.558594 C 222.832031 49.007812 222.433594 47.257812 222.5 45.507812 C 222.507812 45.320312 222.664062 45.171875 222.855469 45.179688 C 223.042969 45.1875 223.1875 45.34375 223.183594 45.53125 C 223.121094 47.167969 223.492188 48.796875 224.253906 50.238281 C 224.988281 51.632812 226.089844 52.863281 227.523438 53.765625 Z M 237.445312 38.015625 C 237.285156 37.917969 237.234375 37.707031 237.335938 37.546875 C 237.4375 37.386719 237.648438 37.339844 237.808594 37.4375 C 239.34375 38.40625 240.523438 39.726562 241.316406 41.226562 C 242.132812 42.777344 242.535156 44.523438 242.464844 46.277344 C 242.460938 46.464844 242.300781 46.613281 242.113281 46.605469 C 241.925781 46.597656 241.777344 46.441406 241.785156 46.25 C 241.847656 44.617188 241.476562 42.988281 240.714844 41.542969 C 239.980469 40.148438 238.878906 38.921875 237.445312 38.019531 Z M 237.445312 38.015625 " fill-opacity="1" fill-rule="evenodd"/></g></g></g><g clip-path="url(#90be9744f2)"><g clip-path="url(#ec907bd884)"><g clip-path="url(#dadbf7994b)"><path fill="#febe99" d="M 217.894531 69.046875 C 230.683594 77.105469 247.582031 73.269531 255.640625 60.480469 C 258.300781 56.261719 259.660156 51.597656 259.835938 46.949219 C 260.191406 37.503906 255.644531 28.136719 247.070312 22.734375 C 234.285156 14.679688 217.382812 18.511719 209.328125 31.304688 C 206.667969 35.519531 205.304688 40.1875 205.128906 44.835938 C 204.773438 54.277344 209.324219 63.648438 217.894531 69.046875 Z M 253.957031 46.722656 C 253.820312 50.371094 252.75 54.03125 250.660156 57.34375 C 244.335938 67.382812 231.070312 70.394531 221.03125 64.070312 C 214.304688 59.832031 210.730469 52.476562 211.011719 45.0625 C 211.148438 41.414062 212.21875 37.75 214.304688 34.441406 C 220.628906 24.402344 233.898438 21.386719 243.9375 27.710938 C 250.664062 31.953125 254.238281 39.308594 253.957031 46.71875 Z M 253.957031 46.722656 " fill-opacity="1" fill-rule="evenodd"/></g></g></g><g clip-path="url(#df94f778cd)"><g clip-path="url(#f79398544c)"><g clip-path="url(#50e508bcc8)"><path fill="#febe99" d="M 231.207031 47.917969 C 230.089844 47.210938 229.753906 45.734375 230.457031 44.617188 C 231.164062 43.496094 232.640625 43.160156 233.757812 43.867188 C 234.878906 44.570312 235.214844 46.046875 234.507812 47.167969 C 233.804688 48.285156 232.324219 48.621094 231.207031 47.917969 Z M 228.910156 51.566406 C 232.042969 53.539062 236.183594 52.597656 238.15625 49.464844 C 240.132812 46.332031 239.191406 42.191406 236.058594 40.21875 C 232.925781 38.242188 228.785156 39.183594 226.808594 42.316406 C 224.835938 45.449219 225.777344 49.589844 228.910156 51.566406 Z M 228.910156 51.566406 " fill-opacity="1" fill-rule="evenodd"/></g></g></g></svg>