<?xml version="1.0" encoding="UTF-8" standalone="no"?>
<!DOCTYPE svg PUBLIC "-//W3C//DTD SVG 1.1//EN" "http://www.w3.org/Graphics/SVG/1.1/DTD/svg11.dtd">
<svg width="100%" height="100%" viewBox="0 0 406 176" version="1.1" xmlns="http://www.w3.org/2000/svg" xmlns:xlink="http://www.w3.org/1999/xlink" xml:space="preserve" xmlns:serif="http://www.serif.com/" style="fill-rule:evenodd;clip-rule:evenodd;stroke-linejoin:round;stroke-miterlimit:2;">
    <g transform="matrix(1.47888,0,0,1.47888,-152.72,-33.6335)">
        <g transform="matrix(1,0,0,1,180.618,87.9515)">
            <g>
                <g>
                    <path d="M19.932,-38.531C9.266,-38.531 0.667,-29.932 0.667,-19.266C0.667,-8.667 9.266,0 19.932,0L22.266,0L22.266,-15.932L19.932,-15.932C18.063,-15.932 16.599,-17.464 16.599,-19.266C16.599,-21.062 18.063,-22.599 19.932,-22.599C21.729,-22.599 23.198,-21.062 23.198,-19.266L23.198,0L39.198,0L39.198,-19.266C39.198,-29.932 30.531,-38.531 19.932,-38.531Z" style="fill:rgb(254,190,153);fill-rule:nonzero;"/>
                </g>
            </g>
        </g>
        <g transform="matrix(1,0,0,1,220.412,87.9515)">
            <g>
                <g>
                    <path d="M27.531,-37.396L22.797,-28.198L18,-37.396L0.401,-37.396L11.068,-18.729L-0.469,0L17.13,0L22.266,-8.333L19.13,-13.333L20.198,-13.333C22.932,-8.932 25.667,-4.469 28.396,0L45.995,0L34.328,-18.729L45.13,-37.396L27.531,-37.396Z" style="fill:rgb(254,190,153);fill-rule:nonzero;"/>
                </g>
            </g>
        </g>
        <g transform="matrix(1,0,0,1,165.704,139.145)">
            <g>
                <g>
                    <path d="M0.734,0L26.531,0C39.797,0 48.063,-3.932 48.063,-15.932C48.063,-20.333 46.328,-24.797 42.328,-27.865L26.531,-27.865C31.932,-26.531 32.266,-17.464 25.13,-17.464C16.396,-17.464 17.266,-28.995 25.198,-28.995L47.729,-28.995L47.729,-46.661L22.667,-46.661C7.667,-46.661 0.667,-41.594 0.667,-29.729C0.667,-25.729 1.802,-21.531 4.802,-18.667L9.734,-18.667L10.464,-17.531L0.734,-17.531L0.734,0Z" style="fill:rgb(254,190,153);fill-rule:nonzero;"/>
                </g>
            </g>
        </g>
        <g transform="matrix(1,0,0,1,214.03,139.145)">
            <g>
                <g>
                    <path d="M18.13,0L28.396,0L28.396,-15.531L17.865,-15.531C17.396,-15.531 17,-15.932 17,-16.396L17,-21.932L28.396,-21.932L28.396,-37.396L17,-37.396L17,-46.729L0.599,-46.729L0.599,-17.13C0.599,-5.667 7.797,0 18.13,0Z" style="fill:rgb(254,190,153);fill-rule:nonzero;"/>
                </g>
            </g>
        </g>
        <g transform="matrix(1,0,0,1,243.159,139.145)">
            <g>
                <g>
                    <path d="M19.932,-38.531C9.266,-38.531 0.667,-29.932 0.667,-19.266C0.667,-8.667 9.266,0 19.932,0L22.266,0L22.266,-15.932L19.932,-15.932C18.063,-15.932 16.599,-17.464 16.599,-19.266C16.599,-21.062 18.063,-22.599 19.932,-22.599C21.729,-22.599 23.198,-21.062 23.198,-19.266L23.198,0L39.198,0L39.198,-19.266C39.198,-29.932 30.531,-38.531 19.932,-38.531Z" style="fill:rgb(254,190,153);fill-rule:nonzero;"/>
                </g>
            </g>
        </g>
        <g transform="matrix(1,0,0,1,282.952,139.145)">
            <g>
                <g>
                    <path d="M27.531,-37.396L22.797,-28.198L18,-37.396L0.401,-37.396L11.068,-18.729L-0.469,0L17.13,0L22.266,-8.333L19.13,-13.333L20.198,-13.333C22.932,-8.932 25.667,-4.469 28.396,0L45.995,0L34.328,-18.729L45.13,-37.396L27.531,-37.396Z" style="fill:rgb(254,190,153);fill-rule:nonzero;"/>
                </g>
            </g>
        </g>
        <g transform="matrix(1,0,0,1,328.412,139.145)">
            <g>
                <g>
                    <path d="M27.531,-37.396L22.797,-28.198L18,-37.396L0.401,-37.396L11.068,-18.729L-0.469,0L17.13,0L22.266,-8.333L19.13,-13.333L20.198,-13.333C22.932,-8.932 25.667,-4.469 28.396,0L45.995,0L34.328,-18.729L45.13,-37.396L27.531,-37.396Z" style="fill:rgb(254,190,153);fill-rule:nonzero;"/>
                </g>
            </g>
        </g>
        <g>
            <g>
                <clipPath id="_clip1">
                    <path d="M298.516,10.839L360.281,49.75L321.365,111.516L259.604,72.599L298.516,10.839Z"/>
                </clipPath>
                <g clip-path="url(#_clip1)">
                    <g>
                        <clipPath id="_clip2">
                            <path d="M298.516,10.839L360.281,49.75L321.365,111.516L259.604,72.599L298.516,10.839Z"/>
                        </clipPath>
                        <g clip-path="url(#_clip2)">
                            <path d="M300,77.026C300.214,77.161 300.276,77.443 300.141,77.656C300.005,77.87 299.724,77.932 299.51,77.802C296.495,75.901 294.172,73.307 292.62,70.365C291.01,67.307 290.229,63.875 290.359,60.432C290.37,60.182 290.578,59.984 290.828,59.995C291.083,60.005 291.276,60.214 291.266,60.464C291.141,63.755 291.885,67.031 293.422,69.938C294.901,72.74 297.12,75.214 300,77.026ZM319.958,45.349C319.745,45.214 319.677,44.932 319.813,44.719C319.948,44.505 320.229,44.443 320.443,44.578C323.458,46.479 325.781,49.068 327.339,52.016C328.948,55.068 329.729,58.5 329.599,61.948C329.589,62.198 329.375,62.396 329.125,62.385C328.875,62.375 328.677,62.161 328.688,61.911C328.813,58.625 328.068,55.349 326.536,52.443C325.057,49.635 322.839,47.167 319.958,45.349Z" style="fill:rgb(254,190,153);"/>
                        </g>
                    </g>
                </g>
            </g>
        </g>
        <g>
            <g>
                <clipPath id="_clip3">
                    <path d="M298.516,10.839L360.281,49.75L321.365,111.516L259.604,72.599L298.516,10.839Z"/>
                </clipPath>
                <g clip-path="url(#_clip3)">
                    <g>
                        <clipPath id="_clip4">
                            <path d="M298.516,10.839L360.281,49.75L321.365,111.516L259.604,72.599L298.516,10.839Z"/>
                        </clipPath>
                        <g clip-path="url(#_clip4)">
                            <path d="M296.635,82.37C296.849,82.505 296.911,82.786 296.776,83C296.641,83.214 296.359,83.276 296.146,83.141C292.161,80.63 289.089,77.203 287.036,73.313C284.911,69.276 283.88,64.74 284.047,60.188C284.057,59.938 284.271,59.74 284.521,59.75C284.771,59.76 284.969,59.974 284.958,60.224C284.792,64.62 285.786,68.995 287.839,72.885C289.818,76.641 292.781,79.943 296.63,82.37L296.635,82.37ZM323.323,40.005C323.109,39.875 323.047,39.589 323.177,39.38C323.313,39.167 323.594,39.104 323.807,39.234C327.797,41.75 330.865,45.172 332.922,49.068C335.047,53.099 336.078,57.635 335.906,62.188C335.896,62.443 335.688,62.635 335.438,62.63C335.188,62.62 334.99,62.406 335,62.156C335.167,57.76 334.167,53.38 332.12,49.49C330.141,45.74 327.177,42.438 323.323,40.01L323.323,40.005Z" style="fill:rgb(254,190,153);"/>
                        </g>
                    </g>
                </g>
            </g>
        </g>
        <g>
            <g>
                <clipPath id="_clip5">
                    <path d="M298.516,10.839L360.281,49.75L321.365,111.516L259.604,72.599L298.516,10.839Z"/>
                </clipPath>
                <g clip-path="url(#_clip5)">
                    <g>
                        <clipPath id="_clip6">
                            <path d="M298.516,10.839L360.281,49.75L321.365,111.516L259.604,72.599L298.516,10.839Z"/>
                        </clipPath>
                        <g clip-path="url(#_clip6)">
                            <path d="M298.318,79.698C298.531,79.833 298.594,80.115 298.458,80.328C298.323,80.542 298.042,80.604 297.828,80.469C294.328,78.266 291.63,75.255 289.828,71.839C287.958,68.292 287.052,64.307 287.203,60.307C287.214,60.057 287.422,59.865 287.672,59.87C287.927,59.88 288.12,60.094 288.109,60.344C287.969,64.188 288.839,68.01 290.63,71.411C292.359,74.693 294.948,77.578 298.318,79.698ZM321.641,42.677C321.427,42.542 321.359,42.26 321.495,42.047C321.63,41.839 321.911,41.776 322.125,41.906C325.63,44.115 328.328,47.12 330.13,50.542C331.995,54.083 332.906,58.068 332.75,62.068C332.745,62.318 332.531,62.516 332.281,62.505C332.031,62.495 331.833,62.286 331.844,62.036C331.99,58.193 331.12,54.365 329.328,50.969C327.599,47.688 325.005,44.802 321.641,42.677Z" style="fill:rgb(254,190,153);"/>
                        </g>
                    </g>
                </g>
            </g>
        </g>
        <g>
            <g>
                <clipPath id="_clip7">
                    <path d="M298.516,10.839L360.281,49.75L321.365,111.516L259.604,72.599L298.516,10.839Z"/>
                </clipPath>
                <g clip-path="url(#_clip7)">
                    <g>
                        <clipPath id="_clip8">
                            <path d="M298.516,10.839L360.281,49.75L321.365,111.516L259.604,72.599L298.516,10.839Z"/>
                        </clipPath>
                        <g clip-path="url(#_clip8)">
                            <path d="M301.682,74.359C301.896,74.495 301.958,74.771 301.823,74.984C301.688,75.203 301.406,75.266 301.193,75.13C298.661,73.531 296.714,71.359 295.411,68.885C294.057,66.328 293.401,63.448 293.51,60.552C293.521,60.302 293.734,60.104 293.984,60.115C294.234,60.125 294.432,60.339 294.422,60.589C294.318,63.323 294.938,66.047 296.214,68.464C297.443,70.797 299.286,72.849 301.682,74.359ZM318.276,48.021C318.063,47.885 317.995,47.604 318.13,47.391C318.266,47.177 318.547,47.115 318.76,47.25C321.292,48.844 323.245,51.016 324.547,53.49C325.896,56.052 326.552,58.932 326.443,61.823C326.432,62.073 326.224,62.271 325.974,62.26C325.719,62.25 325.526,62.042 325.536,61.792C325.635,59.057 325.021,56.333 323.745,53.917C322.516,51.583 320.672,49.531 318.276,48.021Z" style="fill:rgb(254,190,153);"/>
                        </g>
                    </g>
                </g>
            </g>
        </g>
        <g>
            <g>
                <clipPath id="_clip9">
                    <path d="M298.516,10.839L360.281,49.75L321.365,111.516L259.604,72.599L298.516,10.839Z"/>
                </clipPath>
                <g clip-path="url(#_clip9)">
                    <g>
                        <clipPath id="_clip10">
                            <path d="M298.516,10.839L360.281,49.75L321.365,111.516L259.604,72.599L298.516,10.839Z"/>
                        </clipPath>
                        <g clip-path="url(#_clip10)">
                            <path d="M303.365,71.688C303.578,71.823 303.641,72.104 303.505,72.318C303.375,72.526 303.089,72.594 302.875,72.458C300.833,71.172 299.255,69.411 298.203,67.411C297.109,65.344 296.578,63.01 296.667,60.677C296.677,60.427 296.885,60.229 297.141,60.24C297.391,60.25 297.583,60.458 297.578,60.708C297.495,62.891 297.99,65.063 299.005,66.984C299.984,68.844 301.453,70.484 303.365,71.688ZM316.594,50.688C316.38,50.557 316.313,50.276 316.448,50.063C316.583,49.849 316.865,49.786 317.078,49.917C319.125,51.208 320.698,52.969 321.755,54.969C322.844,57.036 323.38,59.365 323.286,61.703C323.281,61.953 323.068,62.151 322.818,62.141C322.568,62.13 322.37,61.922 322.38,61.667C322.464,59.49 321.969,57.318 320.953,55.391C319.974,53.531 318.505,51.896 316.594,50.693L316.594,50.688Z" style="fill:rgb(254,190,153);"/>
                        </g>
                    </g>
                </g>
            </g>
        </g>
        <g>
            <g>
                <clipPath id="_clip11">
                    <path d="M298.516,10.839L360.281,49.75L321.365,111.516L259.604,72.599L298.516,10.839Z"/>
                </clipPath>
                <g clip-path="url(#_clip11)">
                    <g>
                        <clipPath id="_clip12">
                            <path d="M298.516,10.839L360.281,49.75L321.365,111.516L259.604,72.599L298.516,10.839Z"/>
                        </clipPath>
                        <g clip-path="url(#_clip12)">
                            <path d="M290.526,92.063C307.578,102.807 330.109,97.693 340.854,80.641C344.401,75.016 346.214,68.797 346.448,62.599C346.922,50.005 340.859,37.516 329.427,30.313C312.38,19.573 289.844,24.682 279.104,41.74C275.557,47.359 273.74,53.583 273.505,59.781C273.031,72.37 279.099,84.865 290.526,92.063ZM338.609,62.297C338.427,67.161 337,72.042 334.214,76.458C325.781,89.844 308.094,93.859 294.708,85.427C285.74,79.776 280.974,69.969 281.349,60.083C281.531,55.219 282.958,50.333 285.74,45.922C294.172,32.536 311.865,28.516 325.25,36.948C334.219,42.604 338.984,52.411 338.609,62.292L338.609,62.297Z" style="fill:rgb(254,190,153);"/>
                        </g>
                    </g>
                </g>
            </g>
        </g>
        <g>
            <g>
                <clipPath id="_clip13">
                    <path d="M298.516,10.839L360.281,49.75L321.365,111.516L259.604,72.599L298.516,10.839Z"/>
                </clipPath>
                <g clip-path="url(#_clip13)">
                    <g>
                        <clipPath id="_clip14">
                            <path d="M298.516,10.839L360.281,49.75L321.365,111.516L259.604,72.599L298.516,10.839Z"/>
                        </clipPath>
                        <g clip-path="url(#_clip14)">
                            <path d="M308.276,63.891C306.786,62.948 306.339,60.979 307.276,59.49C308.219,57.995 310.188,57.547 311.677,58.49C313.172,59.427 313.62,61.396 312.677,62.891C311.74,64.38 309.766,64.828 308.276,63.891ZM305.214,68.755C309.391,71.385 314.911,70.13 317.542,65.953C320.177,61.776 318.922,56.255 314.745,53.625C310.568,50.99 305.047,52.245 302.411,56.422C299.781,60.599 301.036,66.12 305.214,68.755Z" style="fill:rgb(254,190,153);"/>
                        </g>
                    </g>
                </g>
            </g>
        </g>
    </g>
    <g transform="matrix(1.47888,0,0,1.47888,3.25527,96.4361)">
        <g>
            <g>
                <path d="M33.464,-46.661L25.667,-23.396L18.198,-46.661L-0.469,-46.661L15,0L35.599,0L40.531,-14L37.729,-21.667L38.729,-21.667L46.594,0L67.396,0L82.859,-46.661L64.193,-46.661L56.797,-23.396L48.661,-46.661L33.464,-46.661Z" style="fill:rgb(254,190,153);fill-rule:nonzero;"/>
            </g>
        </g>
    </g>
</svg>
